<?xml version="1.0" encoding="UTF-8" standalone="no"?>
<!-- Created with Inkscape (http://www.inkscape.org/) -->

<svg
   version="1.1"
   id="svg9460"
   width="1200"
   height="1200"
   viewBox="0 0 1200 1200"
   sodipodi:docname="glass-of-wine-isometric-pdv.svg"
   inkscape:version="1.2 (dc2aedaf03, 2022-05-15)"
   xmlns:inkscape="http://www.inkscape.org/namespaces/inkscape"
   xmlns:sodipodi="http://sodipodi.sourceforge.net/DTD/sodipodi-0.dtd"
   xmlns="http://www.w3.org/2000/svg"
   xmlns:svg="http://www.w3.org/2000/svg">
  <defs
     id="defs9464">
    <clipPath
       clipPathUnits="userSpaceOnUse"
       id="clipPath9478">
      <path
         d="M 0,900 H 900 V 0 H 0 Z"
         id="path9476" />
    </clipPath>
  </defs>
  <sodipodi:namedview
     id="namedview9462"
     pagecolor="#ffffff"
     bordercolor="#000000"
     borderopacity="0.25"
     inkscape:showpageshadow="2"
     inkscape:pageopacity="0.0"
     inkscape:pagecheckerboard="0"
     inkscape:deskcolor="#d1d1d1"
     showgrid="false"
     inkscape:zoom="0.6975"
     inkscape:cx="600"
     inkscape:cy="600.71685"
     inkscape:window-width="1920"
     inkscape:window-height="1017"
     inkscape:window-x="-8"
     inkscape:window-y="-8"
     inkscape:window-maximized="1"
     inkscape:current-layer="g9468">
    <inkscape:page
       x="0"
       y="0"
       id="page9466"
       width="1200"
       height="1200" />
  </sodipodi:namedview>
  <g
     id="g9468"
     inkscape:groupmode="layer"
     inkscape:label="Page 1"
     transform="matrix(1.3333333,0,0,-1.3333333,0,1200)">
    <path
       d="M 0.372,2.278 H 898.145 V 900 H 0.372 Z"
       style="fill:#663300;fill-opacity:1;fill-rule:nonzero;stroke:none"
       id="path9470" />
    <g
       id="g9472">
      <g
         id="g9474"
         clip-path="url(#clipPath9478)">
        <path
           d="M 0.372,2.278 H 898.145 V 900.049 H 0.372 Z"
           style="fill:none;stroke:#000000;stroke-width:1.24;stroke-linecap:butt;stroke-linejoin:miter;stroke-miterlimit:22.926;stroke-dasharray:none;stroke-opacity:1"
           id="path9480" />
        <g
           id="g9482"
           transform="translate(547.7051,123.6025)">
          <path
             d="M 0,0 C 128.68,0 233.631,62.802 233.631,139.8 233.631,216.798 128.68,279.601 0,279.601 -128.679,279.601 -233.632,216.798 -233.632,139.8 -233.632,62.802 -128.679,0 0,0"
             style="fill:#4f2800;fill-opacity:1;fill-rule:evenodd;stroke:none"
             id="path9484" />
        </g>
        <g
           id="g9486"
           transform="translate(449.2607,118.0049)">
          <path
             d="m 0,0 c 96.471,0 175.156,51.333 175.156,114.274 0,62.94 -78.685,114.272 -175.156,114.272 -96.475,0 -175.158,-51.332 -175.158,-114.272 C -175.158,51.333 -96.475,0 0,0"
             style="fill:#afc0d1;fill-opacity:1;fill-rule:evenodd;stroke:none"
             id="path9488" />
        </g>
        <g
           id="g9490"
           transform="translate(449.2607,127.3066)">
          <path
             d="m 0,0 c 96.471,0 175.156,51.333 175.156,114.274 0,62.939 -78.685,114.272 -175.156,114.272 -96.475,0 -175.158,-51.333 -175.158,-114.272 C -175.158,51.333 -96.475,0 0,0"
             style="fill:#dae5f0;fill-opacity:1;fill-rule:evenodd;stroke:none"
             id="path9492" />
        </g>
        <g
           id="g9494"
           transform="translate(449.2588,355.8545)">
          <path
             d="m 0,0 c 96.737,0 175.156,-51.164 175.156,-114.276 0,-37.466 -27.638,-70.722 -70.34,-91.561 -42.776,29.207 -67.506,67.438 -75.284,114.148 -14.022,8.913 -28.043,17.825 -42.066,26.738 -33.793,1.252 -59.555,17.673 -77.598,48.673 C -63.8,-5.947 -32.965,0 0,0"
             style="fill:#c0d0e0;fill-opacity:1;fill-rule:evenodd;stroke:none"
             id="path9496" />
        </g>
        <g
           id="g9498"
           transform="translate(419.7271,433.4834)">
          <path
             d="m 0,0 h 59.064 v -169.318 c 0,-31.29 -59.064,-31.737 -59.064,0 z"
             style="fill:#afc0d1;fill-opacity:1;fill-rule:evenodd;stroke:none"
             id="path9500" />
        </g>
        <g
           id="g9502"
           transform="translate(182.8652,610.5254)">
          <path
             d="m 0,0 c 0,-147.523 119.27,-267.116 266.394,-267.116 147.126,0 266.394,119.593 266.394,267.116 z"
             style="fill:#dae5f0;fill-opacity:1;fill-rule:evenodd;stroke:none"
             id="path9504" />
        </g>
        <g
           id="g9506"
           transform="translate(700.1846,540.3423)">
          <path
             d="m 0,0 c -17.561,-27.376 -43.978,-49.361 -71.967,-65.445 -53.348,-30.651 -117.831,-44.117 -178.959,-44.117 -61.125,0 -125.611,13.466 -178.958,44.117 -27.991,16.084 -54.407,38.069 -71.968,65.445 30.546,-110.003 131.132,-190.984 250.926,-190.984 119.797,0 220.379,80.981 250.926,190.984"
             style="fill:#7a1f00;fill-opacity:1;fill-rule:evenodd;stroke:none"
             id="path9508" />
        </g>
        <g
           id="g9510"
           transform="translate(699.8213,539.7822)">
          <path
             d="m 0,0 c -17.56,-27.116 -43.805,-48.91 -71.604,-64.885 -53.347,-30.651 -117.831,-44.117 -178.958,-44.117 -61.126,0 -125.612,13.466 -178.959,44.117 -27.8,15.975 -54.044,37.769 -71.605,64.885 25.248,-69.423 127.83,-121.386 250.564,-121.386 C -127.829,-121.386 -25.246,-69.423 0,0"
             style="fill:#a32900;fill-opacity:1;fill-rule:evenodd;stroke:none"
             id="path9512" />
        </g>
        <g
           id="g9514"
           transform="translate(449.2607,436.7305)">
          <path
             d="m 0,0 c 146.723,0 266.393,78.071 266.393,173.795 0,95.725 -119.67,173.799 -266.393,173.799 -146.726,0 -266.396,-78.074 -266.396,-173.799 C -266.396,78.071 -146.726,0 0,0"
             style="fill:#c0d0e0;fill-opacity:1;fill-rule:evenodd;stroke:none"
             id="path9516" />
        </g>
        <g
           id="g9518"
           transform="translate(705.1387,562.0532)">
          <path
             d="m 0,0 c -32.164,-72.395 -134.541,-125.323 -255.88,-125.323 -121.339,0 -223.715,52.928 -255.881,125.323 -0.423,3.634 -0.653,7.3 -0.653,10.998 0,85.413 114.853,154.654 256.534,154.654 C -114.199,165.652 0.653,96.411 0.653,10.998 0.653,7.3 0.425,3.634 0,0"
             style="fill:#cc3300;fill-opacity:1;fill-rule:evenodd;stroke:none"
             id="path9520" />
        </g>
        <g
           id="g9522"
           transform="translate(377.6313,475.7559)">
          <path
             d="m 0,0 c 87.998,0 159.768,45.964 159.768,102.322 0,56.356 -71.77,102.32 -159.768,102.32 -88,0 -159.773,-45.964 -159.773,-102.32 C -159.773,45.964 -88,0 0,0"
             style="fill:#e83f07;fill-opacity:1;fill-rule:evenodd;stroke:none"
             id="path9524" />
        </g>
        <g
           id="g9526"
           transform="translate(294.5322,466.8799)">
          <path
             d="m 0,0 c 3.898,-49.419 23.138,-77.494 47.18,-98.883 14.823,-5.686 29.645,-11.369 44.468,-17.056 C 82.497,-91.803 75.464,-65.924 81.236,-29.5 54.159,-19.665 27.079,-9.834 0,0"
             style="fill:#dae5f0;fill-opacity:1;fill-rule:evenodd;stroke:none"
             id="path9528" />
        </g>
      </g>
    </g>
  </g>
</svg>
